<svg width="40" height="47" viewBox="0 0 40 47" fill="none" xmlns="http://www.w3.org/2000/svg">
<path d="M28.773 0C26.2763 0.172684 23.3583 1.77075 21.6578 3.85174C20.1065 5.73956 18.8304 8.54349 19.328 11.2684C22.0558 11.3533 24.8744 9.71716 26.5076 7.60104C28.0354 5.63127 29.1915 2.8449 28.773 0Z" fill="white"/>
<path d="M38.6449 15.7102C36.2478 12.7044 32.879 10.96 29.6975 10.96C25.4975 10.96 23.7209 12.9707 20.8029 12.9707C17.7941 12.9707 15.5082 10.9658 11.876 10.9658C8.3082 10.9658 4.50916 13.1463 2.10037 16.8751C-1.28598 22.1258 -0.706466 31.9981 4.78136 40.4069C6.74526 43.4157 9.36771 46.7991 12.798 46.8284C15.8507 46.8576 16.7111 44.8703 20.8468 44.8498C24.9824 44.8264 25.7668 46.8547 28.8136 46.8225C32.2468 46.7962 35.0127 43.0469 36.9766 40.0381C38.3844 37.881 38.9083 36.7952 40 34.36C32.0595 31.3366 30.7863 20.0449 38.6449 15.7102Z" fill="white"/>
</svg>
