<svg width="24" height="24" viewBox="0 0 24 24" fill="none" xmlns="http://www.w3.org/2000/svg">
<g clip-path="url(#clip0_50_1760)">
<path d="M12 24C18.6274 24 24 18.6274 24 12C24 5.37258 18.6274 0 12 0C5.37258 0 0 5.37258 0 12C0 18.6274 5.37258 24 12 24Z" fill="#EFA326"/>
<path d="M8.2488 17.8582L3.87399 13.1433C3.58377 12.8323 3.42874 12.4189 3.44291 11.9938C3.45708 11.5687 3.6393 11.1665 3.94958 10.8756C4.26178 10.5865 4.67588 10.4332 5.10103 10.4491C5.52617 10.4651 5.92763 10.649 6.2173 10.9606L9.59998 14.5795L14.9575 9.57163C15.0053 9.52766 15.0558 9.48664 15.1086 9.44879L17.622 7.09604C17.933 6.80581 18.3464 6.65078 18.7715 6.66496C19.1966 6.67913 19.5988 6.86134 19.8897 7.17163C20.18 7.4826 20.335 7.89599 20.3208 8.32112C20.3067 8.74624 20.1244 9.14839 19.8141 9.43935L12.1134 16.6204L9.43935 19.1055L8.25824 17.8393L8.2488 17.8582Z" fill="white"/>
</g>
<defs>
<clipPath id="clip0_50_1760">
<rect width="24" height="24" fill="white"/>
</clipPath>
</defs>
</svg>
