<svg width="24" height="16" viewBox="0 0 24 16" fill="none" xmlns="http://www.w3.org/2000/svg">
<path d="M12.0001 3.8623C9.86911 3.8623 8.1377 5.59371 8.1377 7.72468C8.1377 9.85565 9.86911 11.5871 12.0001 11.5871C14.131 11.5871 15.8624 9.85565 15.8624 7.72468C15.8624 5.59371 14.131 3.8623 12.0001 3.8623ZM11.7071 6.57929C11.2276 6.57929 10.828 6.97884 10.828 7.45831H9.54946C9.5761 6.25964 10.535 5.30071 11.7071 5.30071V6.57929Z" fill="#EFA326"/>
<path d="M23.7203 6.92564C22.4151 5.30078 17.7536 0 12 0C6.24639 0 1.58491 5.30078 0.279689 6.92564C-0.0932298 7.37847 -0.0932298 8.04439 0.279689 8.52386C1.58491 10.1487 6.24639 15.4495 12 15.4495C17.7536 15.4495 22.4151 10.1487 23.7203 8.52386C24.0932 8.07103 24.0932 7.40511 23.7203 6.92564ZM12 13.3185C8.9101 13.3185 6.40622 10.8147 6.40622 7.72475C6.40622 4.63485 8.9101 2.13097 12 2.13097C15.0899 2.13097 17.5938 4.63485 17.5938 7.72475C17.5938 10.8147 15.0899 13.3185 12 13.3185Z" fill="#EFA326"/>
</svg>
