<svg width="16" height="21" viewBox="0 0 16 21" fill="none" xmlns="http://www.w3.org/2000/svg">
<path d="M8.39062 0C4.2551 0 0.890625 3.26843 0.890625 7.28586C0.890625 12.2716 7.60239 19.591 7.88815 19.9001C8.15656 20.1906 8.62518 20.19 8.8931 19.9001C9.17886 19.591 15.8906 12.2716 15.8906 7.28586C15.8905 3.26843 12.5261 0 8.39062 0ZM8.39062 10.9516C6.30994 10.9516 4.61723 9.30715 4.61723 7.28586C4.61723 5.26457 6.30998 3.62018 8.39062 3.62018C10.4713 3.62018 12.164 5.26461 12.164 7.2859C12.164 9.30719 10.4713 10.9516 8.39062 10.9516Z" fill="#EFA326"/>
</svg>
