<svg width="24" height="19" viewBox="0 0 24 19" fill="none" xmlns="http://www.w3.org/2000/svg">
<path d="M22.3152 5.01953H21.6578V12.2446C21.6578 13.3695 21.0029 14.3867 19.6898 14.3867H6.8252V14.7302C6.8252 15.7248 7.95638 16.7287 9.11801 16.7287H18.9536L22.7164 18.9411L22.1707 16.7287H22.3152C23.476 16.7287 23.9998 15.7271 23.9998 14.7302V6.73465C23.9998 5.74009 23.476 5.01953 22.3152 5.01953Z" fill="#EFA326"/>
<path d="M17.7695 0H2.82757C1.51293 0 0 1.16788 0 2.2936V11.3493C0 12.386 1.28185 13.1347 2.5114 13.2502L1.71122 16.2878L6.83863 13.2713H17.7695C19.0841 13.2713 20.2973 12.4743 20.2973 11.3493V2.2936C20.2973 1.16788 19.0834 0 17.7695 0ZM5.10711 7.64428C4.74913 7.64428 4.40581 7.50207 4.15268 7.24894C3.89955 6.99581 3.75734 6.65249 3.75734 6.29451C3.75734 5.93653 3.89955 5.5932 4.15268 5.34007C4.40581 5.08694 4.74913 4.94474 5.10711 4.94474C5.4651 4.94474 5.80841 5.08694 6.06155 5.34007C6.31468 5.5932 6.45688 5.93653 6.45688 6.29451C6.45688 6.65249 6.31468 6.99581 6.06155 7.24894C5.80841 7.50207 5.4651 7.64428 5.10711 7.64428ZM10.1487 7.64428C9.79067 7.64428 9.44735 7.50207 9.19422 7.24894C8.94109 6.99581 8.79888 6.65249 8.79888 6.29451C8.79888 5.93653 8.94109 5.5932 9.19422 5.34007C9.44735 5.08694 9.79067 4.94474 10.1487 4.94474C10.5066 4.94474 10.85 5.08694 11.1031 5.34007C11.3562 5.5932 11.4984 5.93653 11.4984 6.29451C11.4984 6.65249 11.3562 6.99581 11.1031 7.24894C10.85 7.50207 10.5066 7.64428 10.1487 7.64428ZM15.191 7.64428C15.0136 7.64428 14.838 7.60934 14.6741 7.54147C14.5103 7.4736 14.3614 7.37412 14.236 7.24871C14.1106 7.1233 14.0111 6.97442 13.9432 6.81056C13.8754 6.6467 13.8404 6.47108 13.8404 6.29373C13.8404 6.11637 13.8754 5.94075 13.9432 5.77689C14.0111 5.61304 14.1106 5.46415 14.236 5.33874C14.3614 5.21333 14.5103 5.11385 14.6741 5.04598C14.838 4.97811 15.0136 4.94317 15.191 4.94317C15.5492 4.94317 15.8927 5.08546 16.146 5.33874C16.3992 5.59202 16.5415 5.93554 16.5415 6.29373C16.5415 6.65191 16.3992 6.99543 16.146 7.24871C15.8927 7.50199 15.5492 7.64428 15.191 7.64428Z" fill="#EFA326"/>
</svg>
