<svg width="20" height="23" viewBox="0 0 20 23" fill="none" xmlns="http://www.w3.org/2000/svg">
<path d="M16.2388 15.4566C15.1378 15.4566 14.1459 15.932 13.4575 16.6883L7.26519 12.8532C7.43519 12.4186 7.52236 11.956 7.52218 11.4894C7.52239 11.0227 7.43523 10.5602 7.26519 10.1256L13.4575 6.29026C14.1459 7.04658 15.1378 7.52222 16.2388 7.52222C18.3128 7.52222 20 5.83499 20 3.76102C20 1.68705 18.3128 0 16.2388 0C14.1649 0 12.4776 1.68723 12.4776 3.7612C12.4776 4.22782 12.5647 4.69035 12.7346 5.12494L6.54253 8.96014C5.85406 8.20382 4.86216 7.72818 3.7612 7.72818C1.68723 7.72818 0 9.41559 0 11.4894C0 13.5633 1.68723 15.2506 3.7612 15.2506C4.86212 15.2506 5.85411 14.7751 6.54253 14.0186L12.7347 17.8538C12.5647 18.2885 12.4776 18.751 12.4776 19.2177C12.4776 21.2915 14.1648 22.9788 16.2388 22.9788C18.3128 22.9788 20 21.2915 20 19.2178C20 17.1438 18.3128 15.4566 16.2388 15.4566ZM13.8491 3.7612C13.8491 2.44351 14.9212 1.3715 16.2388 1.3715C17.5564 1.3715 18.6285 2.44351 18.6285 3.7612C18.6285 5.07889 17.5565 6.1509 16.2388 6.1509C14.9211 6.1509 13.8491 5.07884 13.8491 3.7612ZM3.7612 13.8791C2.44333 13.8791 1.37132 12.807 1.37132 11.4894C1.37132 10.1717 2.44333 9.09968 3.7612 9.09968C5.07889 9.09968 6.15072 10.1717 6.15072 11.4894C6.15072 12.807 5.07884 13.8791 3.7612 13.8791ZM13.8491 19.2176C13.8491 17.8999 14.9212 16.8279 16.2388 16.8279C17.5564 16.8279 18.6285 17.8999 18.6285 19.2176C18.6285 20.5352 17.5565 21.6073 16.2388 21.6073C14.9211 21.6073 13.8491 20.5352 13.8491 19.2176V19.2176Z" fill="black"/>
</svg>
