<svg width="123" height="22" viewBox="0 0 123 22" fill="none" xmlns="http://www.w3.org/2000/svg">
<path d="M11.413 17.76L4.36 21.708L5.935 13.78L0 8.292L8.027 7.34L11.413 0L14.799 7.34L22.826 8.292L16.891 13.78L18.466 21.708L11.413 17.76Z" fill="#FF9900"/>
<path d="M61.413 17.76L54.36 21.708L55.935 13.78L50 8.292L58.027 7.34L61.413 0L64.799 7.34L72.826 8.292L66.891 13.78L68.466 21.708L61.413 17.76Z" fill="#FF9900"/>
<path d="M36.413 17.76L29.36 21.708L30.935 13.78L25 8.292L33.027 7.34L36.413 0L39.799 7.34L47.826 8.292L41.891 13.78L43.466 21.708L36.413 17.76Z" fill="#FF9900"/>
<path d="M86.413 17.76L79.36 21.708L80.935 13.78L75 8.292L83.027 7.34L86.413 0L89.799 7.34L97.826 8.292L91.891 13.78L93.466 21.708L86.413 17.76Z" fill="#FF9900"/>
<path d="M111.413 15.468L115.66 17.845L114.711 13.072L118.284 9.767L113.451 9.194L111.413 4.775V15.468ZM111.413 17.76L104.36 21.708L105.935 13.78L100 8.292L108.027 7.34L111.413 0L114.799 7.34L122.826 8.292L116.891 13.78L118.466 21.708L111.413 17.76Z" fill="#FF9900"/>
</svg>
