<svg width="24" height="24" viewBox="0 0 24 24" fill="none" xmlns="http://www.w3.org/2000/svg">
<path d="M12.003 0H11.997C5.3805 0 0 5.382 0 12C0 14.625 0.846 17.058 2.2845 19.0335L0.789 23.4915L5.4015 22.017C7.299 23.274 9.5625 24 12.003 24C18.6195 24 24 18.6165 24 12C24 5.3835 18.6195 0 12.003 0Z" fill="#4CAF50"/>
<path d="M18.9856 16.9453C18.6961 17.7628 17.5471 18.4408 16.6306 18.6388C16.0036 18.7723 15.1846 18.8788 12.4276 17.7358C8.90108 16.2748 6.63008 12.6913 6.45308 12.4588C6.28358 12.2263 5.02808 10.5613 5.02808 8.83928C5.02808 7.11728 5.90258 6.27878 6.25508 5.91878C6.54458 5.62328 7.02308 5.48828 7.48208 5.48828C7.63058 5.48828 7.76408 5.49578 7.88408 5.50178C8.23658 5.51678 8.41358 5.53778 8.64608 6.09428C8.93558 6.79178 9.64058 8.51378 9.72458 8.69078C9.81008 8.86778 9.89558 9.10778 9.77558 9.34028C9.66308 9.58028 9.56408 9.68678 9.38708 9.89078C9.21008 10.0948 9.04208 10.2508 8.86508 10.4698C8.70308 10.6603 8.52008 10.8643 8.72408 11.2168C8.92808 11.5618 9.63308 12.7123 10.6711 13.6363C12.0106 14.8288 13.0966 15.2098 13.4851 15.3718C13.7746 15.4918 14.1196 15.4633 14.3311 15.2383C14.5996 14.9488 14.9311 14.4688 15.2686 13.9963C15.5086 13.6573 15.8116 13.6153 16.1296 13.7353C16.4536 13.8478 18.1681 14.6953 18.5206 14.8708C18.8731 15.0478 19.1056 15.1318 19.1911 15.2803C19.2751 15.4288 19.2751 16.1263 18.9856 16.9453Z" fill="#FAFAFA"/>
</svg>
